<svg width="161" height="162" xmlns="http://www.w3.org/2000/svg" xmlns:xlink="http://www.w3.org/1999/xlink" overflow="hidden"><defs><clipPath id="clip0"><rect x="428" y="229" width="161" height="162"/></clipPath></defs><g clip-path="url(#clip0)" transform="translate(-428 -229)"><path d="M572.5 259.5 572.5 364.892" stroke="#3284BF" stroke-width="12.6667" stroke-miterlimit="8" fill="none" fill-rule="evenodd"/><path d="M0 23 0 0 24 23Z" stroke="#000000" stroke-width="3.66667" stroke-miterlimit="8" fill="#3284BF" fill-rule="evenodd" transform="matrix(1 0 0 -1 560 385)"/><path d="M0 0 126.783 126.786" stroke="#3284BF" stroke-width="12.6667" stroke-miterlimit="8" fill="none" fill-rule="evenodd" transform="matrix(1 0 0 -1 445.5 373.286)"/><rect x="560" y="298" width="24" height="24" stroke="#000000" stroke-width="3.66667" stroke-miterlimit="8" fill="#3284BF"/><path d="M445.5 310.5 508.142 310.5" stroke="#000000" stroke-width="12.6667" stroke-miterlimit="8" fill="none" fill-rule="evenodd"/><path d="M508.5 258.5 508.5 312.491" stroke="#000000" stroke-width="12.6667" stroke-miterlimit="8" fill="none" fill-rule="evenodd"/><path d="M456.5 246.5 520.25 246.5" stroke="#000000" stroke-width="12.6667" stroke-miterlimit="8" fill="none" fill-rule="evenodd"/><path d="M444.5 258.5 444.5 363.582" stroke="#000000" stroke-width="12.6667" stroke-miterlimit="8" fill="none" fill-rule="evenodd"/><rect x="496" y="298" width="24" height="24" stroke="#000000" stroke-width="3.66667" stroke-miterlimit="8" fill="#3284BF"/><path d="M0 24 24 0 24 24Z" stroke="#000000" stroke-width="3.66667" stroke-miterlimit="8" fill="#3284BF" fill-rule="evenodd" transform="matrix(-1 0 0 1 584 234)"/><rect x="496" y="234" width="24" height="24" stroke="#000000" stroke-width="3.66667" stroke-miterlimit="8" fill="#3284BF"/><rect x="432" y="298" width="24" height="24" stroke="#000000" stroke-width="3.66667" stroke-miterlimit="8" fill="#3284BF"/><path d="M0 23 23 0 23 23Z" stroke="#000000" stroke-width="3.66667" stroke-miterlimit="8" fill="#3284BF" fill-rule="evenodd" transform="matrix(1 0 0 -1 433 385)"/><path d="M433 258 456 234 456 258Z" stroke="#000000" stroke-width="3.66667" stroke-miterlimit="8" fill="#3284BF" fill-rule="evenodd"/></g></svg>